HIERARCHY
ROOT Hips
{
    OFFSET 0.000000 0.000000 0.000000
    CHANNELS 6 Xposition Yposition Zposition Zrotation Xrotation Yrotation
    JOINT Spine
    {
        OFFSET -0.000000 14.517291 0.000000
        CHANNELS 3 Zrotation Xrotation Yrotation
        JOINT Spine1
        {
            OFFSET -0.000000 37.558300 0.000000
            CHANNELS 3 Zrotation Xrotation Yrotation
            JOINT Neck
            {
                OFFSET -0.000000 37.404057 3.400369
                CHANNELS 3 Zrotation Xrotation Yrotation
                JOINT Head
                {
                    OFFSET -0.000000 24.785618 -3.540803
                    CHANNELS 3 Zrotation Xrotation Yrotation
                    End Site
                    {
                        OFFSET -0.000000 35.408028 0.000000
                    }
                }
            }
            JOINT LeftShoulder
            {
                OFFSET 6.992933 33.973492 -0.192664
                CHANNELS 3 Zrotation Xrotation Yrotation
                JOINT LeftArm
                {
                    OFFSET 21.527611 0.000000 0.000000
                    CHANNELS 3 Zrotation Xrotation Yrotation
                    JOINT LeftForeArm
                    {
                        OFFSET 56.353916 0.000000 0.000000
                        CHANNELS 3 Zrotation Xrotation Yrotation
                        JOINT LeftHand
                        {
                            OFFSET 47.774071 0.000000 0.000000
                            CHANNELS 3 Zrotation Xrotation Yrotation
                            End Site
                            {
                                OFFSET 26.556021 0.000000 0.000000
                            }
                        }
                    }
                }
            }
            JOINT RightShoulder
            {
                OFFSET -7.065357 33.973492 -0.192664
                CHANNELS 3 Zrotation Xrotation Yrotation
                JOINT RightArm
                {
                    OFFSET -21.527611 0.000000 0.000000
                    CHANNELS 3 Zrotation Xrotation Yrotation
                    JOINT RightForeArm
                    {
                        OFFSET -56.353916 0.000000 0.000000
                        CHANNELS 3 Zrotation Xrotation Yrotation
                        JOINT RightHand
                        {
                            OFFSET -47.774071 0.000000 0.000000
                            CHANNELS 3 Zrotation Xrotation Yrotation
                            End Site
                            {
                                OFFSET -26.556021 0.000000 0.000000
                            }
                        }
                    }
                }
            }
        }
    }
    JOINT LeftUpLeg
    {
        OFFSET 17.704014 0.000000 0.000000
        CHANNELS 3 Zrotation Xrotation Yrotation
        JOINT LeftLeg
        {
            OFFSET -0.000000 -81.181816 0.000000
            CHANNELS 3 Zrotation Xrotation Yrotation
            JOINT LeftFoot
            {
                OFFSET -0.000000 -62.821102 0.000000
                CHANNELS 3 Zrotation Xrotation Yrotation
                JOINT LeftToeBase
                {
                    OFFSET -0.000000 -11.507608 26.556021
                    CHANNELS 3 Zrotation Xrotation Yrotation
                    End Site
                    {
                        OFFSET -0.000000 0.000000 7.081605
                    }
                }
            }
        }
    }
    JOINT RightUpLeg
    {
        OFFSET -17.704014 0.000000 0.000000
        CHANNELS 3 Zrotation Xrotation Yrotation
        JOINT RightLeg
        {
            OFFSET -0.000000 -81.181816 0.000000
            CHANNELS 3 Zrotation Xrotation Yrotation
            JOINT RightFoot
            {
                OFFSET -0.000000 -62.821102 0.000000
                CHANNELS 3 Zrotation Xrotation Yrotation
                JOINT RightToeBase
                {
                    OFFSET -0.000000 -11.507608 26.556021
                    CHANNELS 3 Zrotation Xrotation Yrotation
                    End Site
                    {
                        OFFSET -0.000000 0.000000 7.081605
                    }
                }
            }
        }
    }
}
MOTION
Frames:    8
Frame Time:    0.008333
14.976902    139.863571    43.240055    2.346246    4.262258    -41.988468    0.978595    3.596174    -3.599353    0.683784    0.702290    -1.193752    15.094083    1.755556    6.559944    -7.748344    1.608153    3.810447    12.011938    3.594035    -18.578157    -9.433982    -5.632632    -21.539942    14.331751    -2.361978    -48.672836    -0.383673    4.309013    -43.380825    -9.909401    -1.919028    -7.840848    29.926222    -26.550066    40.574879    2.394917    -26.467037    107.683418    14.616997    -25.807671    30.533253    42.752979    -28.916317    40.747997    -34.307415    39.132225    16.530111    8.260900    -3.035756    57.643112    0.000000    0.000000    0.000000    -23.376333    -21.669233    -22.867422    18.300512    65.458191    -17.579725    10.764907    -34.735195    0.925795    0.000000    0.000000    0.000000    
15.074783    139.713287    43.330563    2.383204    4.280529    -41.987026    0.947050    3.605799    -3.666043    0.656864    0.680438    -1.216009    15.049542    1.797220    6.542895    -7.642369    1.534684    3.813176    11.998750    3.642728    -18.574608    -9.442653    -5.712957    -21.586514    14.244161    -2.323368    -48.695694    -0.257889    4.261230    -43.525398    -9.861944    -1.893651    -7.867514    30.025476    -26.634748    40.601578    2.362896    -26.390236    107.835144    14.579213    -25.710522    30.517649    42.873615    -28.995123    40.838963    -34.625637    39.312485    16.769583    8.392869    -3.162939    57.646450    0.000000    0.000000    0.000000    -23.521214    -21.754107    -22.847660    18.620289    65.607529    -17.893431    10.848677    -34.816753    0.986611    0.000000    0.000000    0.000000    
15.142096    139.566559    43.425976    2.392718    4.284802    -41.976631    0.899976    3.574291    -3.714341    0.676377    0.741448    -1.233131    14.999986    1.822286    6.504354    -7.585184    1.472765    3.786445    11.961239    3.636495    -18.634928    -9.470166    -5.631501    -21.592731    14.351377    -2.277758    -48.626305    -0.140996    4.299049    -43.555374    -9.852013    -1.905258    -7.900692    30.087584    -26.623365    40.559006    2.310990    -26.404137    107.986107    14.552871    -25.677689    30.492680    43.000847    -29.054756    40.899651    -34.945518    39.508854    17.006937    8.507585    -3.298133    57.652264    0.000000    0.000000    0.000000    -23.632122    -21.796625    -22.813843    18.913181    65.740654    -18.166428    10.880189    -34.908268    0.995488    0.000000    0.000000    0.000000    
15.198872    139.427750    43.521030    2.388991    4.280580    -41.954842    0.875157    3.559999    -3.785868    0.658155    0.787291    -1.257433    14.972279    1.819568    6.474788    -7.534401    1.474391    3.765735    11.951369    3.659102    -18.657068    -9.501839    -5.533483    -21.628735    14.459753    -2.298399    -48.572803    -0.227614    4.354459    -43.545704    -9.810497    -1.911270    -7.912900    30.139698    -26.657156    40.496662    2.331213    -26.317263    108.137131    14.510817    -25.634842    30.484434    43.107746    -29.110708    40.896915    -35.257896    39.674492    17.251072    8.621228    -3.432409    57.676598    0.000000    0.000000    0.000000    -23.726843    -21.817444    -22.773561    19.164541    65.874664    -18.386070    10.954036    -35.004181    1.006188    0.000000    0.000000    0.000000    
15.250416    139.307449    43.614075    2.386758    4.273154    -41.923435    0.843302    3.555351    -3.863973    0.646918    0.812817    -1.283850    14.977825    1.867673    6.460250    -7.532541    1.408862    3.752300    11.967930    3.734165    -18.636362    -9.565514    -5.585778    -21.726452    14.388597    -2.256941    -48.565739    -0.215578    4.357351    -43.559803    -9.748055    -1.865912    -7.945899    30.209597    -26.697208    40.503830    2.343783    -26.264957    108.238564    14.566185    -25.584730    30.523579    43.195187    -29.176590    40.870361    -35.540096    39.835869    17.462471    8.690002    -3.568280    57.716282    0.000000    0.000000    0.000000    -23.817770    -21.828211    -22.739559    19.394957    65.991379    -18.564018    10.991126    -35.081970    0.970781    0.000000    0.000000    0.000000    
15.301307    139.208389    43.707352    2.380932    4.260113    -41.898552    0.811293    3.555160    -3.928523    0.665991    0.830684    -1.305943    14.949725    1.931990    6.444201    -7.534925    1.335222    3.742914    11.935645    3.795192    -18.658812    -9.610353    -5.579054    -21.775816    14.415185    -2.152508    -48.547768    -0.124026    4.434705    -43.587231    -9.732621    -1.834733    -7.960822    30.250559    -26.711380    40.443707    2.357691    -26.204849    108.348297    14.529260    -25.559126    30.505072    43.256958    -29.224424    40.825184    -35.795986    39.957470    17.650667    8.789827    -3.649584    57.755260    0.000000    0.000000    0.000000    -23.888172    -21.837494    -22.700190    19.530884    66.098221    -18.685230    11.060379    -35.128582    0.972871    0.000000    0.000000    0.000000    
15.343906    139.126236    43.788574    2.361860    4.250132    -41.884720    0.782540    3.560152    -3.981600    0.668031    0.960967    -1.324694    14.990412    1.736536    6.480012    -7.567716    1.410323    3.749018    11.985891    3.764185    -18.508387    -9.708828    -5.479743    -21.965651    14.397498    -2.272041    -48.598499    -0.199150    4.344956    -43.578064    -9.677744    -1.957767    -8.065922    30.234116    -26.718002    40.367531    2.448368    -26.063217    108.462952    14.434289    -25.562649    30.486897    43.353294    -29.262976    40.809849    -36.094166    40.176392    17.839827    8.820251    -3.862747    57.776268    0.000000    0.000000    0.000000    -23.917753    -21.848900    -22.606085    19.697861    66.176773    -18.883089    11.125986    -35.167763    0.974030    0.000000    0.000000    0.000000    
15.383739    139.056702    43.875305    2.338201    4.239859    -41.865993    0.763014    3.554675    -4.026212    0.702034    1.009956    -1.340359    14.965723    1.736345    6.480052    -7.584460    1.384243    3.748498    11.957325    3.787867    -18.515717    -9.787645    -5.509398    -22.044485    14.371907    -2.081761    -48.624859    -0.121092    4.496013    -43.608898    -9.661544    -1.953052    -8.087407    30.247242    -26.757242    40.282063    2.504189    -25.955160    108.537758    14.382463    -25.543486    30.471088    43.407585    -29.293188    40.763718    -36.288170    40.283730    17.990833    8.897664    -3.928963    57.798931    0.000000    0.000000    0.000000    -23.944958    -21.844265    -22.510855    19.896402    66.231606    -19.081028    11.166859    -35.194271    0.926281    0.000000    0.000000    0.000000    
